<svg width="122.88" height="105.47" xmlns="http://www.w3.org/2000/svg" xml:space="preserve" version="1.1">

 <g>
  <title>Layer 1</title>
  <g id="svg_1">
   <path stroke="#ffa500" fill="#ffa500" id="svg_2" clip-rule="evenodd" fill-rule="evenodd" d="m4.99,83.59c37.32,-0.07 74.61,-0.11 111.93,0c2.22,0.01 4.04,1.82 4.04,4.04c0,6.03 -2.53,17.83 -16.17,17.83c-29.23,0 -58.45,0 -87.68,0c-13.64,0 -16.17,-11.8 -16.17,-17.83c0,-2.22 1.82,-4.03 4.05,-4.04l0,0zm83.56,-69.99c3.43,0 6.22,2.78 6.22,6.22c0,3.43 -2.78,6.22 -6.22,6.22c-3.43,0 -6.22,-2.78 -6.22,-6.22c0.01,-3.43 2.79,-6.22 6.22,-6.22l0,0zm-54.22,0.44c3.43,0 6.22,2.78 6.22,6.22c0,3.43 -2.78,6.22 -6.22,6.22c-3.43,0 -6.22,-2.78 -6.22,-6.22c0,-3.44 2.78,-6.22 6.22,-6.22l0,0zm26.89,-5.93c3.43,0 6.22,2.78 6.22,6.22c0,3.43 -2.78,6.22 -6.22,6.22c-3.43,0 -6.22,-2.78 -6.22,-6.22c0.01,-3.44 2.79,-6.22 6.22,-6.22l0,0zm50.41,36.52l-100.06,0c-6.36,0 -11.57,-5.2 -11.57,-11.56l0,0c0,-16.47 32.81,-32.79 60.36,-33.07c54.21,-0.54 78.54,44.63 51.27,44.63l0,0zm9.06,17.58c0.17,0.29 0.26,0.6 0.26,0.93c0,0.21 -0.01,0.44 -0.02,0.67c0.02,0.23 0.02,0.46 0.02,0.67c0,0.33 -0.09,0.64 -0.26,0.93c-0.92,4.01 -4.6,9.26 -15.9,9.26c-29.23,0 -58.45,0 -87.68,0c-11.31,0 -14.98,-5.24 -15.9,-9.26c-0.17,-0.29 -0.26,-0.6 -0.26,-0.93c0,-0.21 0.01,-0.44 0.02,-0.67c-0.02,-0.23 -0.02,-0.46 -0.02,-0.67c0,-0.33 0.09,-0.64 0.26,-0.93c0.92,-4.01 4.6,-9.26 15.9,-9.26l45.4,0l16.74,17.29l16.63,-17.29l8.91,0c11.31,0.01 14.98,5.25 15.9,9.26l0,0z" class="st0"/>
  </g>
 </g>
</svg>