<svg width="122.88" height="98.89" xmlns="http://www.w3.org/2000/svg" xml:space="preserve" version="1.1">

 <g>
  <title>Layer 1</title>
  <g id="svg_1">
   <path stroke="#ffa500" fill="#ffa500" id="svg_2" clip-rule="evenodd" fill-rule="evenodd" d="m1.72,92l119.43,0c0.94,0 1.72,0.79 1.72,1.72l0,3.44c0,0.93 -0.78,1.72 -1.72,1.72l-119.43,0c-0.94,0.01 -1.72,-0.76 -1.72,-1.71l0,-3.44c0,-0.95 0.78,-1.73 1.72,-1.73l0,0zm64.68,-72.27c31.57,2.52 56.4,25.25 56.4,57.47c0,2.62 -0.17,5.19 -0.48,7.72l-121.75,0c-0.32,-2.56 -0.48,-5.14 -0.48,-7.73c0,-32.37 25.06,-55.19 56.83,-57.5l0,-9.77l-9.68,0c-0.98,0 -1.78,-0.8 -1.78,-1.78l0,-6.36c0,-0.98 0.8,-1.78 1.78,-1.78l28.7,0c0.98,0 1.78,0.8 1.78,1.78l0,6.37c0,0.98 -0.8,1.78 -1.78,1.78l-9.54,0l0,9.8l0,0l0,0z" class="st0"/>
  </g>
 </g>
</svg>